<mxfile host="app.diagrams.net" modified="2023-06-27T04:40:36.195Z" agent="Mozilla/5.0 (Macintosh; Intel Mac OS X 10_15_7) AppleWebKit/537.36 (KHTML, like Gecko) Chrome/114.0.0.0 Safari/537.36" etag="D0waWe1UagIkb5cA1_Bt" version="21.5.0" type="github">
  <diagram name="Page-1" id="929967ad-93f9-6ef4-fab6-5d389245f69c">
    <mxGraphModel dx="1005" dy="624" grid="1" gridSize="10" guides="1" tooltips="1" connect="1" arrows="1" fold="1" page="1" pageScale="1.5" pageWidth="1169" pageHeight="826" background="#ffffff" math="0" shadow="0">
      <root>
        <mxCell id="0" style=";html=1;" />
        <mxCell id="1" style=";html=1;" parent="0" />
        <mxCell id="vAdIkDT2yquaFf7B_GON-4" value="" style="shape=actor;whiteSpace=wrap;html=1;fillColor=#050505;fontColor=#050505;" vertex="1" parent="1">
          <mxGeometry x="350" y="230" width="40" height="60" as="geometry" />
        </mxCell>
        <mxCell id="vAdIkDT2yquaFf7B_GON-5" value="" style="shape=actor;whiteSpace=wrap;html=1;fillColor=#0a0a0a;" vertex="1" parent="1">
          <mxGeometry x="490" y="230" width="40" height="60" as="geometry" />
        </mxCell>
        <mxCell id="vAdIkDT2yquaFf7B_GON-6" value="" style="shape=actor;whiteSpace=wrap;html=1;fillColor=#0a0a0a;" vertex="1" parent="1">
          <mxGeometry x="630" y="230" width="40" height="60" as="geometry" />
        </mxCell>
        <mxCell id="vAdIkDT2yquaFf7B_GON-8" value="&lt;font color=&quot;#000000&quot;&gt;产品&lt;/font&gt;" style="text;html=1;align=center;verticalAlign=middle;resizable=0;points=[];autosize=1;strokeColor=none;fillColor=none;" vertex="1" parent="1">
          <mxGeometry x="342" y="288" width="50" height="30" as="geometry" />
        </mxCell>
        <mxCell id="vAdIkDT2yquaFf7B_GON-9" value="研发" style="text;html=1;align=center;verticalAlign=middle;resizable=0;points=[];autosize=1;strokeColor=none;fillColor=none;fontColor=#000000;" vertex="1" parent="1">
          <mxGeometry x="485" y="288" width="50" height="30" as="geometry" />
        </mxCell>
        <mxCell id="vAdIkDT2yquaFf7B_GON-10" value="测试" style="text;html=1;align=center;verticalAlign=middle;resizable=0;points=[];autosize=1;strokeColor=none;fillColor=none;fontColor=#000000;" vertex="1" parent="1">
          <mxGeometry x="625" y="288" width="50" height="30" as="geometry" />
        </mxCell>
        <mxCell id="vAdIkDT2yquaFf7B_GON-11" value="" style="rounded=1;whiteSpace=wrap;html=1;fillColor=#FFFFFF;strokeColor=#B3B3B3;" vertex="1" parent="1">
          <mxGeometry x="330" y="391.5" width="340" height="218" as="geometry" />
        </mxCell>
        <mxCell id="vAdIkDT2yquaFf7B_GON-13" value="" style="endArrow=classic;html=1;rounded=0;strokeColor=#080808;" edge="1" parent="1" source="vAdIkDT2yquaFf7B_GON-8">
          <mxGeometry width="50" height="50" relative="1" as="geometry">
            <mxPoint x="570" y="460" as="sourcePoint" />
            <mxPoint x="510" y="420" as="targetPoint" />
          </mxGeometry>
        </mxCell>
        <mxCell id="vAdIkDT2yquaFf7B_GON-14" value="" style="endArrow=classic;html=1;rounded=0;strokeColor=#080808;exitX=0.4;exitY=1.023;exitDx=0;exitDy=0;exitPerimeter=0;" edge="1" parent="1" source="vAdIkDT2yquaFf7B_GON-10">
          <mxGeometry width="50" height="50" relative="1" as="geometry">
            <mxPoint x="397" y="328" as="sourcePoint" />
            <mxPoint x="540" y="420" as="targetPoint" />
          </mxGeometry>
        </mxCell>
        <mxCell id="vAdIkDT2yquaFf7B_GON-15" value="" style="endArrow=classic;html=1;rounded=0;strokeColor=#080808;" edge="1" parent="1" source="vAdIkDT2yquaFf7B_GON-9">
          <mxGeometry width="50" height="50" relative="1" as="geometry">
            <mxPoint x="407" y="338" as="sourcePoint" />
            <mxPoint x="530" y="420" as="targetPoint" />
          </mxGeometry>
        </mxCell>
        <mxCell id="vAdIkDT2yquaFf7B_GON-17" value="业务逻辑图开发" style="ellipse;whiteSpace=wrap;html=1;fillColor=#647687;fontColor=#ffffff;strokeColor=#314354;" vertex="1" parent="1">
          <mxGeometry x="490" y="430" width="100" height="40" as="geometry" />
        </mxCell>
        <mxCell id="vAdIkDT2yquaFf7B_GON-18" value="业务组件开发" style="ellipse;whiteSpace=wrap;html=1;fillColor=#647687;strokeColor=#314354;fontColor=#ffffff;" vertex="1" parent="1">
          <mxGeometry x="495" y="541" width="95" height="40" as="geometry" />
        </mxCell>
        <mxCell id="vAdIkDT2yquaFf7B_GON-19" value="需求开发" style="rounded=1;whiteSpace=wrap;html=1;fillColor=#647687;strokeColor=#314354;fontColor=#ffffff;" vertex="1" parent="1">
          <mxGeometry x="342" y="481" width="95" height="39" as="geometry" />
        </mxCell>
        <mxCell id="vAdIkDT2yquaFf7B_GON-22" value="" style="endArrow=classic;html=1;rounded=0;strokeColor=#080808;entryX=0;entryY=1;entryDx=0;entryDy=0;" edge="1" parent="1" source="vAdIkDT2yquaFf7B_GON-19" target="vAdIkDT2yquaFf7B_GON-17">
          <mxGeometry width="50" height="50" relative="1" as="geometry">
            <mxPoint x="395" y="328" as="sourcePoint" />
            <mxPoint x="520" y="430" as="targetPoint" />
          </mxGeometry>
        </mxCell>
        <mxCell id="vAdIkDT2yquaFf7B_GON-24" value="&amp;lt;includes&amp;gt;" style="edgeLabel;html=1;align=center;verticalAlign=middle;resizable=0;points=[];labelBackgroundColor=none;fontColor=#B3B3B3;" vertex="1" connectable="0" parent="vAdIkDT2yquaFf7B_GON-22">
          <mxGeometry x="-0.2525" y="1" relative="1" as="geometry">
            <mxPoint x="-2" y="-12" as="offset" />
          </mxGeometry>
        </mxCell>
        <mxCell id="vAdIkDT2yquaFf7B_GON-23" value="" style="endArrow=classic;html=1;rounded=0;strokeColor=#080808;entryX=0;entryY=0;entryDx=0;entryDy=0;" edge="1" parent="1" source="vAdIkDT2yquaFf7B_GON-19" target="vAdIkDT2yquaFf7B_GON-18">
          <mxGeometry width="50" height="50" relative="1" as="geometry">
            <mxPoint x="470" y="492" as="sourcePoint" />
            <mxPoint x="515" y="474" as="targetPoint" />
          </mxGeometry>
        </mxCell>
        <mxCell id="vAdIkDT2yquaFf7B_GON-25" value="&amp;lt;includes&amp;gt;" style="edgeLabel;html=1;align=center;verticalAlign=middle;resizable=0;points=[];labelBackgroundColor=none;fontColor=#B3B3B3;" vertex="1" connectable="0" parent="vAdIkDT2yquaFf7B_GON-23">
          <mxGeometry x="-0.4029" y="1" relative="1" as="geometry">
            <mxPoint x="4" y="14" as="offset" />
          </mxGeometry>
        </mxCell>
        <mxCell id="vAdIkDT2yquaFf7B_GON-26" value="" style="shape=actor;whiteSpace=wrap;html=1;" vertex="1" parent="1">
          <mxGeometry x="490" y="650" width="40" height="60" as="geometry" />
        </mxCell>
        <mxCell id="vAdIkDT2yquaFf7B_GON-27" value="" style="shape=actor;whiteSpace=wrap;html=1;" vertex="1" parent="1">
          <mxGeometry x="550" y="650" width="40" height="60" as="geometry" />
        </mxCell>
        <mxCell id="vAdIkDT2yquaFf7B_GON-28" value="&lt;font color=&quot;#000000&quot;&gt;组件开发同学&lt;/font&gt;" style="text;html=1;align=center;verticalAlign=middle;resizable=0;points=[];autosize=1;strokeColor=none;fillColor=none;" vertex="1" parent="1">
          <mxGeometry x="490" y="710" width="100" height="30" as="geometry" />
        </mxCell>
        <mxCell id="vAdIkDT2yquaFf7B_GON-32" value="" style="endArrow=classic;html=1;rounded=0;strokeColor=#080808;exitX=0.5;exitY=0;exitDx=0;exitDy=0;entryX=0.5;entryY=1;entryDx=0;entryDy=0;" edge="1" parent="1" source="vAdIkDT2yquaFf7B_GON-26" target="vAdIkDT2yquaFf7B_GON-18">
          <mxGeometry width="50" height="50" relative="1" as="geometry">
            <mxPoint x="395" y="328" as="sourcePoint" />
            <mxPoint x="520" y="430" as="targetPoint" />
          </mxGeometry>
        </mxCell>
        <mxCell id="vAdIkDT2yquaFf7B_GON-33" value="" style="endArrow=classic;html=1;rounded=0;strokeColor=#080808;exitX=0.5;exitY=0;exitDx=0;exitDy=0;entryX=0.615;entryY=1.019;entryDx=0;entryDy=0;entryPerimeter=0;" edge="1" parent="1" source="vAdIkDT2yquaFf7B_GON-27" target="vAdIkDT2yquaFf7B_GON-18">
          <mxGeometry width="50" height="50" relative="1" as="geometry">
            <mxPoint x="520" y="660" as="sourcePoint" />
            <mxPoint x="553" y="591" as="targetPoint" />
          </mxGeometry>
        </mxCell>
        <mxCell id="vAdIkDT2yquaFf7B_GON-34" value="" style="outlineConnect=0;dashed=0;verticalLabelPosition=bottom;verticalAlign=top;align=center;html=1;shape=mxgraph.aws3.chime;fillColor=#03B5BB;gradientColor=none;" vertex="1" parent="1">
          <mxGeometry x="720" y="420" width="40" height="42" as="geometry" />
        </mxCell>
        <mxCell id="vAdIkDT2yquaFf7B_GON-35" value="" style="endArrow=none;dashed=1;html=1;rounded=0;entryX=1;entryY=0.5;entryDx=0;entryDy=0;strokeColor=#050505;" edge="1" parent="1">
          <mxGeometry width="50" height="50" relative="1" as="geometry">
            <mxPoint x="720" y="441" as="sourcePoint" />
            <mxPoint x="589" y="450" as="targetPoint" />
          </mxGeometry>
        </mxCell>
        <mxCell id="vAdIkDT2yquaFf7B_GON-36" value="&lt;font color=&quot;#000000&quot;&gt;GPT&lt;/font&gt;" style="text;html=1;align=center;verticalAlign=middle;resizable=0;points=[];autosize=1;strokeColor=none;fillColor=none;" vertex="1" parent="1">
          <mxGeometry x="715" y="462" width="50" height="30" as="geometry" />
        </mxCell>
      </root>
    </mxGraphModel>
  </diagram>
</mxfile>
